<!-- icon666.com - MILLIONS vector ICONS FREE --><svg id="Layer_1" enable-background="new 0 0 256 256" viewBox="0 0 256 256" xmlns="http://www.w3.org/2000/svg"><g id="Line"><path d="m213.279 34s-1.918-1.267-2.479-1.44c-.813-.25-3.36-.56-3.36-.56-30.644-.361-59.822 13.096-79.44 36.64-19.618-23.544-48.796-37.001-79.44-36.64 0 0-2.54-.18-3.36 0-.573.125-2.48 1.44-2.48 1.44l-24 21.12c-1.881 1.642-2.887 4.069-2.72 6.56v126.72c0 4.418 3.582 8 8 8 65.28 0 98.61 26.206 98.96 26.4 1.167.647 3.353 1.833 6.354 1.832 1.946-.001 4.142-1.396 5.378-2.224 8.677-5.806 41.092-24.729 96.588-24.729 4.419 0 8-3.582 8-8v-128c-.002-2.298-.993-4.483-2.719-6zm-13.279 14v111.04c-24.66 2.021-47.588 13.484-64 32v-106.48c14.726-21.218 38.244-34.652 64-36.56zm-144 0c25.731 1.73 49.28 15.064 64 36.24v106.8c-16.413-18.516-39.34-29.979-64-32zm-24 16.72 8-7.04v109.041c0 4.418 3.582 8 8 8 17.743-.135 35.005 5.761 48.96 16.719-20.937-7.129-42.848-10.987-64.96-11.44zm192 115.28c-22.112.453-44.023 4.311-64.96 11.439 13.955-10.958 31.218-16.854 48.96-16.719 4.418 0 8-3.582 8-8v-109.04l8 7.04z"></path></g></svg>