<!-- icon666.com - MILLIONS vector ICONS FREE --><svg clip-rule="evenodd" fill-rule="evenodd" stroke-linejoin="round" stroke-miterlimit="2" viewBox="0 0 67 67" xmlns="http://www.w3.org/2000/svg"><g id="Layer1"><path d="m35.315 4.95c-.279-.858-1.079-1.439-1.982-1.439-.902 0-1.702.581-1.981 1.439l-6.418 19.752h-20.767c-.903 0-1.703.581-1.982 1.439-.279.859.027 1.799.757 2.329l16.802 12.207s-6.418 19.752-6.418 19.752c-.279.858.027 1.798.757 2.329.73.53 1.719.53 2.449 0l16.801-12.207s16.802 12.207 16.802 12.207c.73.53 1.719.53 2.449 0 .73-.531 1.036-1.471.757-2.329l-6.418-19.752s16.802-12.207 16.802-12.207c.73-.53 1.035-1.47.756-2.329-.279-.858-1.078-1.439-1.981-1.439h-20.768s-6.417-19.752-6.417-19.752zm-1.982 7.386 4.904 15.093c.279.858 1.079 1.439 1.982 1.439h15.869s-12.839 9.328-12.839 9.328c-.73.531-1.035 1.471-.756 2.329l4.904 15.093s-12.839-9.328-12.839-9.328c-.73-.53-1.719-.53-2.449 0l-12.839 9.328s4.904-15.093 4.904-15.093c.279-.858-.027-1.798-.757-2.329l-12.838-9.328h15.869c.903 0 1.702-.581 1.981-1.439l4.904-15.093z"></path></g></svg>